<mxfile host="Electron" agent="Mozilla/5.0 (X11; Linux x86_64) AppleWebKit/537.36 (KHTML, like Gecko) draw.io/24.7.5 Chrome/126.0.6478.183 Electron/31.3.0 Safari/537.36" version="24.7.5">
  <diagram name="Page-1" id="2YBvvXClWsGukQMizWep">
    <mxGraphModel dx="1346" dy="715" grid="1" gridSize="10" guides="1" tooltips="1" connect="1" arrows="1" fold="1" page="1" pageScale="1" pageWidth="850" pageHeight="1100" math="0" shadow="0">
      <root>
        <mxCell id="0" />
        <mxCell id="1" parent="0" />
        <mxCell id="aM9ryv3xv72pqoxQDRHE-1" value="Infra" style="shape=umlLifeline;perimeter=lifelinePerimeter;whiteSpace=wrap;html=1;container=0;dropTarget=0;collapsible=0;recursiveResize=0;outlineConnect=0;portConstraint=eastwest;newEdgeStyle={&quot;edgeStyle&quot;:&quot;elbowEdgeStyle&quot;,&quot;elbow&quot;:&quot;vertical&quot;,&quot;curved&quot;:0,&quot;rounded&quot;:0};" parent="1" vertex="1">
          <mxGeometry x="130" y="40" width="100" height="460" as="geometry" />
        </mxCell>
        <mxCell id="aM9ryv3xv72pqoxQDRHE-2" value="" style="html=1;points=[];perimeter=orthogonalPerimeter;outlineConnect=0;targetShapes=umlLifeline;portConstraint=eastwest;newEdgeStyle={&quot;edgeStyle&quot;:&quot;elbowEdgeStyle&quot;,&quot;elbow&quot;:&quot;vertical&quot;,&quot;curved&quot;:0,&quot;rounded&quot;:0};" parent="aM9ryv3xv72pqoxQDRHE-1" vertex="1">
          <mxGeometry x="45" y="70" width="10" height="180" as="geometry" />
        </mxCell>
        <mxCell id="aM9ryv3xv72pqoxQDRHE-3" value="Need to add a new host" style="html=1;verticalAlign=bottom;startArrow=oval;endArrow=block;startSize=8;edgeStyle=elbowEdgeStyle;elbow=vertical;curved=0;rounded=0;" parent="aM9ryv3xv72pqoxQDRHE-1" target="aM9ryv3xv72pqoxQDRHE-2" edge="1">
          <mxGeometry relative="1" as="geometry">
            <mxPoint x="-110" y="70" as="sourcePoint" />
          </mxGeometry>
        </mxCell>
        <mxCell id="aM9ryv3xv72pqoxQDRHE-5" value="Host" style="shape=umlLifeline;perimeter=lifelinePerimeter;whiteSpace=wrap;html=1;container=0;dropTarget=0;collapsible=0;recursiveResize=0;outlineConnect=0;portConstraint=eastwest;newEdgeStyle={&quot;edgeStyle&quot;:&quot;elbowEdgeStyle&quot;,&quot;elbow&quot;:&quot;vertical&quot;,&quot;curved&quot;:0,&quot;rounded&quot;:0};" parent="1" vertex="1">
          <mxGeometry x="310" y="40" width="100" height="460" as="geometry" />
        </mxCell>
        <mxCell id="aM9ryv3xv72pqoxQDRHE-6" value="" style="html=1;points=[];perimeter=orthogonalPerimeter;outlineConnect=0;targetShapes=umlLifeline;portConstraint=eastwest;newEdgeStyle={&quot;edgeStyle&quot;:&quot;elbowEdgeStyle&quot;,&quot;elbow&quot;:&quot;vertical&quot;,&quot;curved&quot;:0,&quot;rounded&quot;:0};" parent="aM9ryv3xv72pqoxQDRHE-5" vertex="1">
          <mxGeometry x="45" y="70" width="10" height="170" as="geometry" />
        </mxCell>
        <mxCell id="H9zueEprOhz8H6vKILK5-14" value="" style="html=1;points=[[0,0,0,0,5],[0,1,0,0,-5],[1,0,0,0,5],[1,1,0,0,-5]];perimeter=orthogonalPerimeter;outlineConnect=0;targetShapes=umlLifeline;portConstraint=eastwest;newEdgeStyle={&quot;curved&quot;:0,&quot;rounded&quot;:0};" parent="aM9ryv3xv72pqoxQDRHE-5" vertex="1">
          <mxGeometry x="50" y="110" width="10" height="20" as="geometry" />
        </mxCell>
        <mxCell id="H9zueEprOhz8H6vKILK5-15" value="&lt;span style=&quot;text-align: center;&quot;&gt;Create NVME NS&lt;/span&gt;" style="html=1;align=left;spacingLeft=2;endArrow=block;rounded=0;edgeStyle=orthogonalEdgeStyle;curved=0;rounded=0;" parent="aM9ryv3xv72pqoxQDRHE-5" target="H9zueEprOhz8H6vKILK5-14" edge="1">
          <mxGeometry relative="1" as="geometry">
            <mxPoint x="55" y="90" as="sourcePoint" />
            <Array as="points">
              <mxPoint x="85" y="120" />
            </Array>
          </mxGeometry>
        </mxCell>
        <mxCell id="Nx0x6M6AyhL1lLqP680z-2" value="" style="html=1;points=[[0,0,0,0,5],[0,1,0,0,-5],[1,0,0,0,5],[1,1,0,0,-5]];perimeter=orthogonalPerimeter;outlineConnect=0;targetShapes=umlLifeline;portConstraint=eastwest;newEdgeStyle={&quot;curved&quot;:0,&quot;rounded&quot;:0};" parent="aM9ryv3xv72pqoxQDRHE-5" vertex="1">
          <mxGeometry x="50" y="170" width="10" height="50" as="geometry" />
        </mxCell>
        <mxCell id="Nx0x6M6AyhL1lLqP680z-3" value="&lt;div style=&quot;text-align: center;&quot;&gt;Boot DA&lt;/div&gt;" style="html=1;align=left;spacingLeft=2;endArrow=block;rounded=0;edgeStyle=orthogonalEdgeStyle;curved=0;rounded=0;" parent="aM9ryv3xv72pqoxQDRHE-5" target="Nx0x6M6AyhL1lLqP680z-2" edge="1">
          <mxGeometry relative="1" as="geometry">
            <mxPoint x="55" y="150" as="sourcePoint" />
            <Array as="points">
              <mxPoint x="85" y="180" />
            </Array>
          </mxGeometry>
        </mxCell>
        <mxCell id="aM9ryv3xv72pqoxQDRHE-7" value="Initial configuration" style="html=1;verticalAlign=bottom;endArrow=block;edgeStyle=elbowEdgeStyle;elbow=vertical;curved=0;rounded=0;" parent="1" source="aM9ryv3xv72pqoxQDRHE-2" target="aM9ryv3xv72pqoxQDRHE-6" edge="1">
          <mxGeometry relative="1" as="geometry">
            <mxPoint x="285" y="130" as="sourcePoint" />
            <Array as="points">
              <mxPoint x="270" y="120" />
            </Array>
          </mxGeometry>
        </mxCell>
        <mxCell id="H9zueEprOhz8H6vKILK5-26" value="Disk Registry" style="shape=umlLifeline;perimeter=lifelinePerimeter;whiteSpace=wrap;html=1;container=0;dropTarget=0;collapsible=0;recursiveResize=0;outlineConnect=0;portConstraint=eastwest;newEdgeStyle={&quot;edgeStyle&quot;:&quot;elbowEdgeStyle&quot;,&quot;elbow&quot;:&quot;vertical&quot;,&quot;curved&quot;:0,&quot;rounded&quot;:0};" parent="1" vertex="1">
          <mxGeometry x="750" y="40" width="100" height="460" as="geometry" />
        </mxCell>
        <mxCell id="H9zueEprOhz8H6vKILK5-66" value="" style="html=1;points=[[0,0,0,0,5],[0,1,0,0,-5],[1,0,0,0,5],[1,1,0,0,-5]];perimeter=orthogonalPerimeter;outlineConnect=0;targetShapes=umlLifeline;portConstraint=eastwest;newEdgeStyle={&quot;curved&quot;:0,&quot;rounded&quot;:0};" parent="H9zueEprOhz8H6vKILK5-26" vertex="1">
          <mxGeometry x="45" y="345" width="10" height="40" as="geometry" />
        </mxCell>
        <mxCell id="H9zueEprOhz8H6vKILK5-32" value="" style="html=1;verticalAlign=bottom;endArrow=open;dashed=1;endSize=8;curved=0;rounded=0;exitX=-0.049;exitY=0.945;exitDx=0;exitDy=0;exitPerimeter=0;" parent="1" source="aM9ryv3xv72pqoxQDRHE-6" target="aM9ryv3xv72pqoxQDRHE-2" edge="1">
          <mxGeometry relative="1" as="geometry">
            <mxPoint x="260" y="210" as="sourcePoint" />
            <mxPoint x="180" y="210" as="targetPoint" />
          </mxGeometry>
        </mxCell>
        <mxCell id="H9zueEprOhz8H6vKILK5-33" value="Register" style="html=1;verticalAlign=bottom;endArrow=block;curved=0;rounded=0;exitX=1;exitY=1;exitDx=0;exitDy=-5;exitPerimeter=0;entryX=0;entryY=0;entryDx=0;entryDy=5;entryPerimeter=0;" parent="1" source="H9zueEprOhz8H6vKILK5-24" target="H9zueEprOhz8H6vKILK5-66" edge="1">
          <mxGeometry width="80" relative="1" as="geometry">
            <mxPoint x="690" y="330" as="sourcePoint" />
            <mxPoint x="795" y="335" as="targetPoint" />
          </mxGeometry>
        </mxCell>
        <mxCell id="Nx0x6M6AyhL1lLqP680z-5" value="" style="group" parent="1" vertex="1" connectable="0">
          <mxGeometry x="620" y="230" width="100" height="270" as="geometry" />
        </mxCell>
        <mxCell id="H9zueEprOhz8H6vKILK5-17" value="Disk Agent" style="shape=umlLifeline;perimeter=lifelinePerimeter;whiteSpace=wrap;html=1;container=1;dropTarget=0;collapsible=0;recursiveResize=0;outlineConnect=0;portConstraint=eastwest;newEdgeStyle={&quot;edgeStyle&quot;:&quot;elbowEdgeStyle&quot;,&quot;elbow&quot;:&quot;vertical&quot;,&quot;curved&quot;:0,&quot;rounded&quot;:0};" parent="Nx0x6M6AyhL1lLqP680z-5" vertex="1">
          <mxGeometry width="100" height="270" as="geometry" />
        </mxCell>
        <mxCell id="H9zueEprOhz8H6vKILK5-19" value="" style="html=1;points=[[0,0,0,0,5],[0,1,0,0,-5],[1,0,0,0,5],[1,1,0,0,-5]];perimeter=orthogonalPerimeter;outlineConnect=0;targetShapes=umlLifeline;portConstraint=eastwest;newEdgeStyle={&quot;curved&quot;:0,&quot;rounded&quot;:0};" parent="H9zueEprOhz8H6vKILK5-17" vertex="1">
          <mxGeometry x="45" y="93.46" width="10" height="106.54" as="geometry" />
        </mxCell>
        <mxCell id="H9zueEprOhz8H6vKILK5-24" value="" style="html=1;points=[[0,0,0,0,5],[0,1,0,0,-5],[1,0,0,0,5],[1,1,0,0,-5]];perimeter=orthogonalPerimeter;outlineConnect=0;targetShapes=umlLifeline;portConstraint=eastwest;newEdgeStyle={&quot;curved&quot;:0,&quot;rounded&quot;:0};" parent="H9zueEprOhz8H6vKILK5-17" vertex="1">
          <mxGeometry x="50" y="124.61538461538463" width="10" height="41.53846153846154" as="geometry" />
        </mxCell>
        <mxCell id="H9zueEprOhz8H6vKILK5-25" value="Discovery" style="html=1;align=left;spacingLeft=2;endArrow=block;rounded=0;edgeStyle=orthogonalEdgeStyle;curved=0;rounded=0;" parent="H9zueEprOhz8H6vKILK5-17" target="H9zueEprOhz8H6vKILK5-24" edge="1">
          <mxGeometry x="0.0719" relative="1" as="geometry">
            <mxPoint x="55" y="103.84615384615385" as="sourcePoint" />
            <Array as="points">
              <mxPoint x="85" y="135" />
            </Array>
            <mxPoint as="offset" />
          </mxGeometry>
        </mxCell>
        <mxCell id="H9zueEprOhz8H6vKILK5-61" value="Disk Agent" style="rounded=0;dashed=0;whiteSpace=wrap;html=1;" parent="Nx0x6M6AyhL1lLqP680z-5" vertex="1">
          <mxGeometry width="100" height="41.53846153846154" as="geometry" />
        </mxCell>
        <mxCell id="Nx0x6M6AyhL1lLqP680z-8" value="" style="html=1;verticalAlign=bottom;labelBackgroundColor=none;endArrow=open;endFill=0;dashed=1;rounded=0;entryX=0;entryY=0.5;entryDx=0;entryDy=0;" parent="1" source="Nx0x6M6AyhL1lLqP680z-2" target="H9zueEprOhz8H6vKILK5-61" edge="1">
          <mxGeometry width="160" relative="1" as="geometry">
            <mxPoint x="365" y="240" as="sourcePoint" />
            <mxPoint x="620" y="240" as="targetPoint" />
          </mxGeometry>
        </mxCell>
        <mxCell id="Nx0x6M6AyhL1lLqP680z-9" value="" style="html=1;verticalAlign=bottom;endArrow=open;dashed=1;endSize=8;curved=0;rounded=0;exitX=0;exitY=1;exitDx=0;exitDy=-5;exitPerimeter=0;" parent="1" source="H9zueEprOhz8H6vKILK5-66" target="H9zueEprOhz8H6vKILK5-19" edge="1">
          <mxGeometry relative="1" as="geometry">
            <mxPoint x="760" y="290" as="sourcePoint" />
            <mxPoint x="680" y="290" as="targetPoint" />
          </mxGeometry>
        </mxCell>
        <mxCell id="Nx0x6M6AyhL1lLqP680z-11" value="" style="group" parent="1" vertex="1" connectable="0">
          <mxGeometry x="130" y="300" width="680" height="190" as="geometry" />
        </mxCell>
        <mxCell id="Nx0x6M6AyhL1lLqP680z-12" value="loop" style="shape=umlFrame;whiteSpace=wrap;html=1;pointerEvents=0;fontSize=8;width=40;height=20;" parent="Nx0x6M6AyhL1lLqP680z-11" vertex="1">
          <mxGeometry x="40" y="10.56" width="640" height="179.44" as="geometry" />
        </mxCell>
        <mxCell id="Nx0x6M6AyhL1lLqP680z-13" value="[until DA is registered in DR]" style="text;html=1;align=center;verticalAlign=middle;resizable=0;points=[];autosize=1;strokeColor=none;fillColor=none;fontSize=8;" parent="Nx0x6M6AyhL1lLqP680z-11" vertex="1">
          <mxGeometry x="79.99632183908042" y="21.111111111111104" width="120" height="20" as="geometry" />
        </mxCell>
        <mxCell id="Nx0x6M6AyhL1lLqP680z-14" value="" style="html=1;verticalAlign=bottom;endArrow=block;curved=0;rounded=0;" parent="Nx0x6M6AyhL1lLqP680z-11" edge="1">
          <mxGeometry relative="1" as="geometry">
            <mxPoint x="50.08666666666663" y="41.11" as="sourcePoint" />
            <mxPoint x="669.92" y="41.11" as="targetPoint" />
          </mxGeometry>
        </mxCell>
        <mxCell id="Nx0x6M6AyhL1lLqP680z-15" value="ADD_HOST" style="edgeLabel;html=1;align=center;verticalAlign=middle;resizable=0;points=[];" parent="Nx0x6M6AyhL1lLqP680z-14" vertex="1" connectable="0">
          <mxGeometry x="0.28" y="1" relative="1" as="geometry">
            <mxPoint x="-137" y="1" as="offset" />
          </mxGeometry>
        </mxCell>
        <mxCell id="H9zueEprOhz8H6vKILK5-68" value="" style="html=1;verticalAlign=bottom;endArrow=open;dashed=1;endSize=8;curved=0;rounded=0;" parent="Nx0x6M6AyhL1lLqP680z-11" edge="1" target="aM9ryv3xv72pqoxQDRHE-1">
          <mxGeometry relative="1" as="geometry">
            <mxPoint x="52.75" y="170" as="targetPoint" />
            <mxPoint x="667.25" y="170" as="sourcePoint" />
          </mxGeometry>
        </mxCell>
      </root>
    </mxGraphModel>
  </diagram>
</mxfile>
